# xmcd CD database file
#
# Track frame offsets:
#	150
#	20819
#	37897
#	58809
#	79394
#	96944
#	112012
#	129662
#	146199
#
# Disc length: 2153 seconds
#
# Revision: 2
# Processed by: cddbd v1.4PL0 Copyright (c) Steve Scherf et al.
# Submitted via: jetAudio 5
#
DISCID=85086709
DTITLE=Sandy - On My Own Sandy Disk1
DYEAR=1900
DGENRE=
TTITLE0=至少還有你
TTITLE1=遠走高飛
TTITLE2=等你說愛我
TTITLE3=不會結朿的故事
TTITLE4=愛過我的每一天
TTITLE5=失蹤
TTITLE6=默讀傷悲
TTITLE7=重遇
TTITLE8=飛的理由
EXTD=
EXTT0=
EXTT1=
EXTT2=
EXTT3=
EXTT4=
EXTT5=
EXTT6=
EXTT7=
EXTT8=
PLAYORDER=
